<?xml version="1.0" encoding="UTF-8"?>
<svg version="1.1" xmlns="http://www.w3.org/2000/svg" width="340" height="340">
<path d="M0 0 C112.2 0 224.4 0 340 0 C340 112.2 340 224.4 340 340 C227.8 340 115.6 340 0 340 C0 227.8 0 115.6 0 0 Z " fill="#201120" transform="translate(0,0)"/>
<path d="M0 0 C1.33572052 0.01078583 1.33572052 0.01078583 2.69842529 0.02178955 C3.63506012 0.0214975 4.57169495 0.02120544 5.53671265 0.02090454 C8.64263063 0.02230149 11.74831077 0.03787984 14.85418701 0.05352783 C17.00367095 0.05725666 19.15315658 0.06010425 21.30264282 0.06210327 C26.96786163 0.06974994 32.63297835 0.0894073 38.29815674 0.11151123 C44.07593403 0.13194742 49.85372777 0.14110022 55.63153076 0.15118408 C66.9740236 0.17265221 78.31644058 0.2068006 89.65887451 0.24884033 C90.29468509 1.668331 90.92929735 3.08835845 91.56341553 4.50860596 C91.91694595 5.29932495 92.27047638 6.09004395 92.63471985 6.90472412 C94.05340213 10.15184709 95.3211913 13.44254813 96.59637451 16.74884033 C98.62492525 21.94138303 100.8847944 26.83880241 103.77606201 31.61212158 C104.65887451 33.24884033 104.65887451 33.24884033 104.65887451 35.24884033 C91.50568906 35.29539225 78.35252354 35.3308249 65.19927216 35.35246468 C59.09023609 35.36285605 52.98125681 35.37692943 46.87225342 35.39971924 C40.96538238 35.4216145 35.05856562 35.4334438 29.1516571 35.43859482 C26.90967455 35.44226085 24.66769462 35.44941872 22.42573547 35.46030045 C11.11162915 35.51297985 0.07773967 35.39569901 -11.12054443 33.67337036 C-14.94584386 33.16912766 -18.58359604 33.20054652 -22.42315674 33.47149658 C-24.34112549 33.24884033 -24.34112549 33.24884033 -25.94268799 32.08135986 C-27.87341245 29.55132882 -27.68421659 27.86357991 -27.63409424 24.70587158 C-27.62442627 23.63272705 -27.6147583 22.55958252 -27.60479736 21.45391846 C-27.57966064 20.33436768 -27.55452393 19.21481689 -27.52862549 18.06134033 C-27.50832275 16.36461182 -27.50832275 16.36461182 -27.48760986 14.63360596 C-27.45222507 11.83820716 -27.40285497 9.04376141 -27.34112549 6.24884033 C-26.35112549 5.91884033 -25.36112549 5.58884033 -24.34112549 5.24884033 C-24.34112549 4.25884033 -24.34112549 3.26884033 -24.34112549 2.24884033 C-19.00779215 2.24884033 -13.67445882 2.24884033 -8.34112549 2.24884033 C-5.66277931 -0.42950585 -3.64022797 0.01234804 0 0 Z " fill="#BC8F88" transform="translate(132.34112548828125,209.75115966796875)"/>
<path d="M0 0 C38.28 0 76.56 0 116 0 C114.56642305 4.30073086 113.29211236 7.4989593 111.1875 11.375 C107.9616031 17.660755 105.94881309 24.07111808 103.98046875 30.82421875 C103 34 103 34 102 35 C99.54321941 35.10038163 97.11453803 35.13617695 94.65722656 35.12939453 C93.88792313 35.13114685 93.11861969 35.13289917 92.32600403 35.13470459 C89.7641885 35.13913005 87.20244132 35.13617926 84.640625 35.1328125 C82.85715725 35.13348617 81.0736896 35.13445672 79.29022217 35.13571167 C75.53738538 35.13719024 71.78457232 35.13503204 68.03173828 35.13037109 C63.25419304 35.12472304 58.4767046 35.12792017 53.69916153 35.13394356 C50.00650621 35.1375873 46.31386394 35.13639237 42.62120819 35.13381577 C40.8624038 35.13315441 39.10359817 35.13394685 37.34479523 35.13629532 C9.74751814 35.1650121 9.74751814 35.1650121 5 32 C3.65605059 32.28755674 2.32429411 32.63239422 1 33 C-1.4157906 33.06831987 -3.83334713 33.08487642 -6.25 33.0625 C-7.51328125 33.05347656 -8.7765625 33.04445312 -10.078125 33.03515625 C-11.04234375 33.02355469 -12.0065625 33.01195312 -13 33 C-13.0872253 28.60429206 -13.14046869 24.20880729 -13.1875 19.8125 C-13.21263672 18.56662109 -13.23777344 17.32074219 -13.26367188 16.03710938 C-13.27333984 14.83505859 -13.28300781 13.63300781 -13.29296875 12.39453125 C-13.3086792 11.28956299 -13.32438965 10.18459473 -13.34057617 9.04614258 C-12.9535669 5.58469838 -12.17422684 3.71052572 -10 1 C-6.5 0.6875 -6.5 0.6875 -3 1 C-2.01 1 -1.02 1 0 1 C0 0.67 0 0.34 0 0 Z " fill="#BA8D87" transform="translate(118,86)"/>
<path d="M0 0 C37.29 0 74.58 0 113 0 C113 11.55 113 23.1 113 35 C75.71 35 38.42 35 0 35 C0 23.45 0 11.9 0 0 Z " fill="#C1988F" transform="translate(103,147)"/>
<path d="M0 0 C112.2 0 224.4 0 340 0 C340 1.98 340 3.96 340 6 C227.8 6 115.6 6 0 6 C0 4.02 0 2.04 0 0 Z " fill="#FEFEFD" transform="translate(0,334)"/>
<path d="M0 0 C112.2 0 224.4 0 340 0 C340 1.98 340 3.96 340 6 C227.8 6 115.6 6 0 6 C0 4.02 0 2.04 0 0 Z " fill="#FDFDFD" transform="translate(0,0)"/>
<path d="M0 0 C0.62811081 0.02734726 1.25622162 0.05469452 1.90336609 0.08287048 C25.80859534 1.08867595 49.71610562 1.30748966 73.63897705 1.53222656 C78.99697456 1.58333853 84.35492993 1.6385461 89.71289062 1.69335938 C100.14189072 1.79947191 110.57092811 1.90121417 121 2 C121 2.33 121 2.66 121 3 C75.46 3.495 75.46 3.495 29 4 C29 4.33 29 4.66 29 5 C23.42922947 6.01286737 18.3755344 5.9891769 12.75 5.5 C11.67234375 5.4071875 10.5946875 5.314375 9.484375 5.21875 C8.66453125 5.1465625 7.8446875 5.074375 7 5 C7 5.99 7 6.98 7 8 C6.01 8.495 6.01 8.495 5 9 C5 17.58 5 26.16 5 35 C8.96 35 12.92 35 17 35 C19.94890362 35.27615151 22.8270402 35.57918478 25.75 36 C26.45898438 36.09539062 27.16796875 36.19078125 27.8984375 36.2890625 C29.59992568 36.51899334 31.30013034 36.75839416 33 37 C30.13548747 38.59730578 27.816286 39.31686878 24.55859375 39.6328125 C23.72779297 39.71660156 22.89699219 39.80039063 22.04101562 39.88671875 C21.18185547 39.96535156 20.32269531 40.04398438 19.4375 40.125 C18.57447266 40.21136719 17.71144531 40.29773438 16.82226562 40.38671875 C13.52839195 40.70919589 10.31188997 41 7 41 C5.66018514 41.3062434 4.32488113 41.63451555 3 42 C3 41.34 3 40.68 3 40 C2.01 39.67 1.02 39.34 0 39 C-0.95642073 34.97723931 -1.12894745 31.21965391 -1.1328125 27.08984375 C-1.13410156 25.77048828 -1.13539062 24.45113281 -1.13671875 23.09179688 C-1.13462402 22.40980225 -1.1325293 21.72780762 -1.13037109 21.02514648 C-1.12500777 18.94051874 -1.1303355 16.85610557 -1.13671875 14.77148438 C-1.13542969 13.45341797 -1.13414063 12.13535156 -1.1328125 10.77734375 C-1.13168457 9.57327881 -1.13055664 8.36921387 -1.12939453 7.12866211 C-1.0214881 4.51956605 -0.67838634 2.48848977 0 0 Z " fill="#421C3D" transform="translate(101,207)"/>
<path d="M0 0 C0.33 0.66 0.66 1.32 1 2 C44.56 2 88.12 2 133 2 C132.67 2.66 132.34 3.32 132 4 C131.13197313 3.99723462 131.13197313 3.99723462 130.24641037 3.99441338 C116.1666674 3.95024743 102.08693482 3.91714981 88.0071373 3.89637566 C81.19825503 3.88606244 74.389419 3.87200128 67.58056641 3.84912109 C61.01240389 3.82706024 54.44427687 3.81543835 47.87607574 3.81024551 C45.36739596 3.80654379 42.85871888 3.79931548 40.35005951 3.78853989 C36.84236416 3.77406927 33.33486872 3.77202022 29.82714844 3.77294922 C28.78489609 3.76575867 27.74264374 3.75856812 26.66880798 3.75115967 C25.23436089 3.75528366 25.23436089 3.75528366 23.77093506 3.75949097 C22.94132137 3.75764738 22.11170769 3.75580379 21.25695419 3.75390434 C18.95432077 3.87229732 18.95432077 3.87229732 16.92837906 5.03846931 C13.88628301 6.55532291 11.24919425 5.60170264 8 5 C7.34 5 6.68 5 6 5 C3.90465815 8.45547603 3.69928372 11.29197531 3.5859375 15.296875 C3.54726562 16.50214844 3.50859375 17.70742187 3.46875 18.94921875 C3.42234375 20.83060547 3.42234375 20.83060547 3.375 22.75 C3.31699219 24.65458984 3.31699219 24.65458984 3.2578125 26.59765625 C3.16355778 29.7316257 3.07794834 32.86558949 3 36 C3.66 36 4.32 36 5 36 C5.33 35.34 5.66 34.68 6 34 C6 34.66 6 35.32 6 36 C8.29199177 35.85936865 10.58359186 35.71234057 12.875 35.5625 C14.15117188 35.48128906 15.42734375 35.40007812 16.7421875 35.31640625 C19.88300152 35.20793973 19.88300152 35.20793973 22 34 C22 34.66 22 35.32 22 36 C26.95 36.33 31.9 36.66 37 37 C37 37.33 37 37.66 37 38 C31.76728431 38.07403712 26.53487199 38.12854783 21.30175781 38.16479492 C19.52077933 38.17990173 17.73983816 38.20038835 15.95898438 38.22631836 C13.40225022 38.26261943 10.8460069 38.27970688 8.2890625 38.29296875 C7.49005524 38.30845261 6.69104797 38.32393646 5.86782837 38.33988953 C3.62353516 38.34057617 3.62353516 38.34057617 0 38 C-2.41892069 34.37161896 -2.25757137 32.63763556 -2.265625 28.3203125 C-2.26753845 27.67053436 -2.2694519 27.02075623 -2.27142334 26.35128784 C-2.2727828 24.9778403 -2.26910299 23.6043798 -2.26074219 22.23095703 C-2.2500732 20.13935081 -2.26062689 18.0486102 -2.2734375 15.95703125 C-2.27211518 14.61978978 -2.2695513 13.28254885 -2.265625 11.9453125 C-2.26336914 10.73375488 -2.26111328 9.52219727 -2.25878906 8.27392578 C-2.00719953 5.09108084 -1.36347154 2.86437342 0 0 Z " fill="#4E254E" transform="translate(102,83)"/>
<path d="M0 0 C10.23 0 20.46 0 31 0 C26.5 3.375 26.5 3.375 22 3 C22 2.34 22 1.68 22 1 C21.01 1 20.02 1 19 1 C18.67 1.66 18.34 2.32 18 3 C15 4 15 4 11.625 3.875 C7.61139252 4.01340026 6.11057269 4.53231613 3 7 C2.22207053 9.58973587 2.22207053 9.58973587 2.29296875 12.54296875 C2.26396484 13.61611328 2.23496094 14.68925781 2.20507812 15.79492188 C2.19927734 16.91447266 2.19347656 18.03402344 2.1875 19.1875 C2.16236328 20.31865234 2.13722656 21.44980469 2.11132812 22.61523438 C2.05235616 25.4105053 2.01614967 28.20420675 2 31 C2.66 31 3.32 31 4 31 C4.66 30.34 5.32 29.68 6 29 C6 29.99 6 30.98 6 32 C19.37317201 32.81324272 32.70943417 33.19447302 46.10546875 33.31640625 C48.05129867 33.33705044 49.99712487 33.3580484 51.94294739 33.37937927 C56.99462816 33.43383121 62.04634402 33.48356998 67.0980835 33.53222656 C72.28091448 33.58301353 77.46369629 33.63839692 82.64648438 33.69335938 C92.76428064 33.79999632 102.88212012 33.9016394 113 34 C113 34.33 113 34.66 113 35 C75.71 35 38.42 35 0 35 C0 23.45 0 11.9 0 0 Z " fill="#693E64" transform="translate(103,147)"/>
<path d="M0 0 C-6.93 0 -13.86 0 -21 0 C-21 11.55 -21 23.1 -21 35 C-18.36386719 34.97679687 -15.72773437 34.95359375 -13.01171875 34.9296875 C-10.46004722 34.91409234 -7.90838098 34.90194682 -5.35668945 34.89013672 C-3.58257676 34.88007589 -1.80848065 34.86642578 -0.03442383 34.84912109 C2.51485284 34.82487622 5.06391037 34.81351782 7.61328125 34.8046875 C8.40712723 34.79436493 9.20097321 34.78404236 10.01887512 34.77340698 C13.88223043 34.7726189 15.70839446 34.80559631 19 37 C5.33333333 37 -8.33333333 37 -22 37 C-24.12291992 33.52838294 -24.25741514 30.76121448 -24.265625 26.73046875 C-24.26820312 25.51166016 -24.27078125 24.29285156 -24.2734375 23.03710938 C-24.26570313 21.76673828 -24.25796875 20.49636719 -24.25 19.1875 C-24.25773437 17.92873047 -24.26546875 16.66996094 -24.2734375 15.37304688 C-24.26047334 9.22479585 -24.17849877 3.78339554 -22 -2 C-14.47059593 -3.50588081 -6.9377895 -3.46889475 0 0 Z " fill="#43124C" transform="translate(124,147)"/>
<path d="M0 0 C3.7125 -0.04125 7.425 -0.0825 11.25 -0.125 C12.99651855 -0.15231201 12.99651855 -0.15231201 14.77832031 -0.18017578 C15.70225586 -0.1851709 16.62619141 -0.19016602 17.578125 -0.1953125 C18.52075195 -0.20578613 19.46337891 -0.21625977 20.43457031 -0.22705078 C23.09951941 0.00880787 24.71863092 0.64338341 27 2 C21.42922947 3.01286737 16.3755344 2.9891769 10.75 2.5 C9.67234375 2.4071875 8.5946875 2.314375 7.484375 2.21875 C6.66453125 2.1465625 5.8446875 2.074375 5 2 C5 2.99 5 3.98 5 5 C4.01 5.495 4.01 5.495 3 6 C3 14.58 3 23.16 3 32 C6.96 32 10.92 32 15 32 C17.94890362 32.27615151 20.8270402 32.57918478 23.75 33 C24.45898438 33.09539062 25.16796875 33.19078125 25.8984375 33.2890625 C27.59992568 33.51899334 29.30013034 33.75839416 31 34 C31 34.33 31 34.66 31 35 C20.77 35 10.54 35 0 35 C0 23.45 0 11.9 0 0 Z " fill="#772AAF" transform="translate(103,210)"/>
<path d="M0 0 C24.09 0 48.18 0 73 0 C72.01 0.99 71.02 1.98 70 3 C67 2.625 67 2.625 64 2 C63.01 2.33 62.02 2.66 61 3 C59.04085135 3.09472257 57.07862356 3.13072174 55.1171875 3.1328125 C53.36535156 3.13474609 53.36535156 3.13474609 51.578125 3.13671875 C50.35609375 3.13285156 49.1340625 3.12898438 47.875 3.125 C46.67617187 3.12886719 45.47734375 3.13273437 44.2421875 3.13671875 C39.05688048 3.13103311 33.96914988 3.07824498 28.8203125 2.4296875 C25.08410929 1.73847448 25.08410929 1.73847448 22 3 C20.22487115 3.015731 18.44878931 2.96706687 16.67578125 2.87890625 C15.64775391 2.83056641 14.61972656 2.78222656 13.56054688 2.73242188 C11.95276367 2.64831055 11.95276367 2.64831055 10.3125 2.5625 C9.22904297 2.51029297 8.14558594 2.45808594 7.02929688 2.40429688 C4.35257409 2.27458784 1.67622112 2.13962067 -1 2 C-0.67 1.34 -0.34 0.68 0 0 Z " fill="#3A1E20" transform="translate(127,121)"/>
<path d="M0 0 C15 0 15 0 18 2 C14.55711188 2.86072203 12.38654161 2.9831895 9 2 C7.68 2 6.36 2 5 2 C2.90465815 5.45547603 2.69928372 8.29197531 2.5859375 12.296875 C2.54726562 13.50214844 2.50859375 14.70742187 2.46875 15.94921875 C2.4378125 17.20347656 2.406875 18.45773438 2.375 19.75 C2.33632812 21.01972656 2.29765625 22.28945312 2.2578125 23.59765625 C2.16355778 26.7316257 2.07794834 29.86558949 2 33 C2.66 33 3.32 33 4 33 C4.33 32.34 4.66 31.68 5 31 C5 31.66 5 32.32 5 33 C7.29199177 32.85936865 9.58359186 32.71234057 11.875 32.5625 C13.15117188 32.48128906 14.42734375 32.40007812 15.7421875 32.31640625 C18.88300152 32.20793973 18.88300152 32.20793973 21 31 C21 31.66 21 32.32 21 33 C25.95 33.33 30.9 33.66 36 34 C36 34.33 36 34.66 36 35 C24.12 35 12.24 35 0 35 C0 23.45 0 11.9 0 0 Z " fill="#7D29C6" transform="translate(103,86)"/>
<path d="M0 0 C18.81 0 37.62 0 57 0 C57 0.33 57 0.66 57 1 C56.28972656 1.06058594 55.57945312 1.12117187 54.84765625 1.18359375 C53.92855469 1.26738281 53.00945312 1.35117188 52.0625 1.4375 C51.14597656 1.51871094 50.22945312 1.59992188 49.28515625 1.68359375 C47.03840268 1.76044976 47.03840268 1.76044976 46 3 C44.40366983 3.26169347 42.79670875 3.46007377 41.1875 3.625 C39.87845703 3.76808594 39.87845703 3.76808594 38.54296875 3.9140625 C36 4 36 4 34.15527344 3.51586914 C29.88625199 2.49407006 25.43086729 2.81533476 21.0625 2.8125 C20.07314453 2.80025391 19.08378906 2.78800781 18.06445312 2.77539062 C17.10603516 2.77345703 16.14761719 2.77152344 15.16015625 2.76953125 C14.29011963 2.76542236 13.42008301 2.76131348 12.52368164 2.75708008 C9.71467373 3.02746441 7.5601808 3.84118737 5 5 C4.67 4.01 4.34 3.02 4 2 C2.68 2 1.36 2 0 2 C0 1.34 0 0.68 0 0 Z " fill="#BBA463" transform="translate(134,147)"/>
<path d="M0 0 C1.670625 0.2475 1.670625 0.2475 3.375 0.5 C6.94351384 1.26487734 6.94351384 1.26487734 10 0 C11.51861755 -0.09203743 13.04110426 -0.13001284 14.5625 -0.125 C15.34753906 -0.12757813 16.13257813 -0.13015625 16.94140625 -0.1328125 C19 0 19 0 21 1 C21.7115625 0.84660156 22.423125 0.69320312 23.15625 0.53515625 C26.72448215 -0.13633799 29.88438454 0.14463515 33.5 0.4375 C40.92437162 1.48253675 40.92437162 1.48253675 48 0 C48.99 0.66 49.98 1.32 51 2 C47.45921359 3.09561691 44.18100555 3.12057444 40.48730469 3.11352539 C39.52082504 3.11374443 39.52082504 3.11374443 38.53482056 3.1139679 C36.41380397 3.1132735 34.29287617 3.10550336 32.171875 3.09765625 C30.69785612 3.09579039 29.22383662 3.09436728 27.74981689 3.09336853 C23.87661008 3.08955661 20.00344097 3.07973765 16.13024902 3.06866455 C12.17537954 3.05842193 8.22050394 3.0538648 4.265625 3.04882812 C-3.48960049 3.03811418 -11.24479496 3.02105369 -19 3 C-15.32337688 0.54891792 -12.60867701 0.80619235 -8.375 0.9375 C-5.91177426 0.99930957 -3.46508783 1.02059143 -1 1 C-0.67 0.67 -0.34 0.34 0 0 Z " fill="#3B1F29" transform="translate(149,144)"/>
<path d="M0 0 C5.94 0 11.88 0 18 0 C17.67 0.66 17.34 1.32 17 2 C14 3 14 3 10.625 2.875 C6.61139252 3.01340026 5.11057269 3.53231613 2 6 C1.22207053 8.58973587 1.22207053 8.58973587 1.29296875 11.54296875 C1.26396484 12.61611328 1.23496094 13.68925781 1.20507812 14.79492188 C1.19927734 15.91447266 1.19347656 17.03402344 1.1875 18.1875 C1.16236328 19.31865234 1.13722656 20.44980469 1.11132812 21.61523438 C1.05235616 24.4105053 1.01614967 27.20420675 1 30 C1.66 30 2.32 30 3 30 C3.66 29.34 4.32 28.68 5 28 C5 28.99 5 29.98 5 31 C11.27 31.33 17.54 31.66 24 32 C24 32.33 24 32.66 24 33 C16.08 33 8.16 33 0 33 C0 22.11 0 11.22 0 0 Z " fill="#8830C3" transform="translate(104,148)"/>
<path d="M0 0 C32.34 0 64.68 0 98 0 C98 0.33 98 0.66 98 1 C97.12432373 1.03758423 97.12432373 1.03758423 96.23095703 1.07592773 C93.52883687 1.19356199 90.82692701 1.31551273 88.125 1.4375 C87.2071875 1.47681641 86.289375 1.51613281 85.34375 1.55664062 C79.85916052 1.80769578 74.4416293 2.22576318 68.99169922 2.89868164 C67 3 67 3 65 2 C62.93776648 1.87951849 60.87171371 1.82259073 58.80615234 1.79467773 C56.85435562 1.7647599 56.85435562 1.7647599 54.86312866 1.73423767 C53.4373995 1.71725327 52.01166907 1.70037447 50.5859375 1.68359375 C49.13147387 1.66302479 47.67701623 1.64202834 46.2225647 1.62062073 C42.39213912 1.56539396 38.56165955 1.5159874 34.73114014 1.46777344 C30.8233153 1.4175628 26.915569 1.36187446 23.0078125 1.30664062 C15.33860815 1.19905167 7.66933855 1.09760838 0 1 C0 0.67 0 0.34 0 0 Z " fill="#221206" transform="translate(139,245)"/>
<path d="M0 0 C9.57 0 19.14 0 29 0 C26.75 6.75 26.75 6.75 25.2734375 9.6484375 C24.9640625 10.26074219 24.6546875 10.87304688 24.3359375 11.50390625 C24.01882812 12.12136719 23.70171875 12.73882812 23.375 13.375 C23.05015625 14.01566406 22.7253125 14.65632813 22.390625 15.31640625 C21.59742593 16.87947501 20.79922969 18.44000622 20 20 C18.8299903 16.08263419 19.30415983 13.02040985 20 9 C20.99 9.33 21.98 9.66 23 10 C22.67 7.36 22.34 4.72 22 2 C19.36 2 16.72 2 14 2 C13.67 2.66 13.34 3.32 13 4 C13 3.34 13 2.68 13 2 C8.71 2 4.42 2 0 2 C0 1.34 0 0.68 0 0 Z " fill="#F0E8DE" transform="translate(205,86)"/>
<path d="M0 0 C0.99 0.33 1.98 0.66 3 1 C3.66 2.98 4.32 4.96 5 7 C-13.15 7 -31.3 7 -50 7 C-46.28441368 5.14220684 -45.19870323 4.75165548 -41.32324219 4.77294922 C-40.40258972 4.77310028 -39.48193726 4.77325134 -38.53338623 4.77340698 C-37.54783752 4.78372955 -36.56228882 4.79405212 -35.546875 4.8046875 C-34.02383759 4.80893234 -34.02383759 4.80893234 -32.47003174 4.81326294 C-29.22990084 4.82444999 -25.99004724 4.84955209 -22.75 4.875 C-20.55208733 4.8850317 -18.35417032 4.89415722 -16.15625 4.90234375 C-10.77073886 4.92438449 -5.38538924 4.95784749 0 5 C0 3.35 0 1.7 0 0 Z " fill="#C7B690" transform="translate(232,238)"/>
<path d="M0 0 C0 0.33 0 0.66 0 1 C-20.79 1 -41.58 1 -63 1 C-58.89788513 -1.05105743 -55.98282379 -1.36977586 -51.54296875 -1.484375 C-50.81082657 -1.50925491 -50.07868439 -1.53413483 -49.32435608 -1.55976868 C-46.94557917 -1.6351208 -44.5668049 -1.69394511 -42.1875 -1.75 C-40.97954773 -1.78285599 -40.97954773 -1.78285599 -39.74719238 -1.81637573 C-26.37895124 -2.16698809 -13.28252241 -1.66720458 0 0 Z " fill="#A88C66" transform="translate(202,120)"/>
<path d="M0 0 C25.08 0 50.16 0 76 0 C76 0.33 76 0.66 76 1 C65.82213873 2.11619225 55.72111194 2.1168458 45.5 2.0625 C43.85416804 2.05747035 42.20833458 2.05291006 40.5625 2.04882812 C37.56443328 2.04072967 34.56640336 2.03006392 31.56835938 2.01586914 C27.75717861 1.99892013 23.94780261 2.000475 20.13671875 2.03515625 C18.65364674 2.04441718 17.17057378 2.05352721 15.6875 2.0625 C14.58631836 2.07506836 14.58631836 2.07506836 13.46289062 2.08789062 C8.86492021 2.10828978 4.53590262 1.76097706 0 1 C0 0.67 0 0.34 0 0 Z " fill="#2D1C19" transform="translate(140,182)"/>
<path d="M0 0 C5.65996416 -0.07402368 11.31964811 -0.12854173 16.97998047 -0.16479492 C18.90646267 -0.17990395 20.83291035 -0.20039214 22.75927734 -0.22631836 C25.52450057 -0.26260925 28.28927004 -0.27970479 31.0546875 -0.29296875 C32.3516304 -0.31619453 32.3516304 -0.31619453 33.67477417 -0.33988953 C36.10107422 -0.34057617 36.10107422 -0.34057617 40 0 C42.1519437 3.22791555 42.20086443 4.28400809 42 8 C40.68 7.67 39.36 7.34 38 7 C38 5.02 38 3.04 38 1 C37.35933594 1.16242188 36.71867187 1.32484375 36.05859375 1.4921875 C32.03797458 2.15972325 28.13080557 2.14769853 24.0625 2.125 C23.22871826 2.12306641 22.39493652 2.12113281 21.53588867 2.11914062 C14.32526317 2.06946451 7.18231968 1.65613361 0 1 C0 0.67 0 0.34 0 0 Z " fill="#DED1AC" transform="translate(182,210)"/>
<path d="M0 0 C0.73837601 0.00202423 1.47675201 0.00404846 2.23750305 0.00613403 C3.00194229 0.00517731 3.76638153 0.00422058 4.5539856 0.00323486 C6.18408795 0.00255205 7.81419298 0.00441335 9.44429016 0.00857544 C11.88909913 0.01382745 14.33371621 0.00868435 16.77851868 0.00222778 C26.15391223 -0.00135677 35.41285718 0.30476377 44.7570343 1.13894653 C44.7570343 1.46894653 44.7570343 1.79894653 44.7570343 2.13894653 C42.21577258 2.33512469 39.67442971 2.52111901 37.1320343 2.70144653 C36.41918274 2.75752075 35.70633118 2.81359497 34.97187805 2.87136841 C30.70437568 3.16500389 26.98656407 2.94669132 22.7570343 2.13894653 C22.1176593 2.30394653 21.4782843 2.46894653 20.8195343 2.63894653 C18.7570343 3.13894653 18.7570343 3.13894653 15.3195343 2.63894653 C11.24273912 2.06676475 8.42788854 2.30351941 4.7570343 4.13894653 C4.0970343 3.47894653 3.4370343 2.81894653 2.7570343 2.13894653 C1.9732843 2.30394653 1.1895343 2.46894653 0.3820343 2.63894653 C-2.65616814 3.21765176 -3.68254062 2.75106603 -6.2429657 1.13894653 C-4.51553876 -0.5884804 -2.30252548 0.01074479 0 0 Z " fill="#C0A95A" transform="translate(151.2429656982422,209.86105346679688)"/>
<path d="M0 0 C0.33 0 0.66 0 1 0 C1 11.22 1 22.44 1 34 C15.35411136 34.14840253 15.35411136 34.14840253 21 31 C21 31.66 21 32.32 21 33 C25.95 33.33 30.9 33.66 36 34 C36 34.33 36 34.66 36 35 C24.12 35 12.24 35 0 35 C0 23.45 0 11.9 0 0 Z " fill="#723191" transform="translate(103,86)"/>
<path d="M0 0 C0.77085937 -0.00257813 1.54171875 -0.00515625 2.3359375 -0.0078125 C4.625 0.125 4.625 0.125 6.546875 0.6328125 C9.25249341 1.27361686 11.71903689 1.17939537 14.5 1.125 C24.55601841 1.0397795 34.58471377 1.61221168 44.625 2.125 C44.625 2.455 44.625 2.785 44.625 3.125 C37.84402652 3.17564156 31.06310167 3.21070883 24.28198242 3.23486328 C21.9743467 3.24493107 19.66672375 3.25858623 17.35913086 3.27587891 C14.04537809 3.30009287 10.73179374 3.31147526 7.41796875 3.3203125 C6.3835112 3.33063507 5.34905365 3.34095764 4.2832489 3.35159302 C3.3224794 3.35174408 2.3617099 3.35189514 1.37182617 3.35205078 C0.52577316 3.356492 -0.32027985 3.36093323 -1.19197083 3.36550903 C-3.375 3.125 -3.375 3.125 -6.375 1.125 C-4.03562093 -0.04468953 -2.60130632 -0.00864221 0 0 Z " fill="#9B7D5F" transform="translate(137.375,241.875)"/>
<path d="M0 0 C5.15950168 -0.02480163 10.31896831 -0.04290809 15.47851562 -0.05493164 C17.23210251 -0.05994651 18.98568524 -0.06676002 20.73925781 -0.07543945 C23.2662865 -0.08763 25.79325968 -0.09325688 28.3203125 -0.09765625 C29.09867462 -0.10281754 29.87703674 -0.10797882 30.6789856 -0.11329651 C34.9003949 -0.1137272 38.84091388 0.1641336 43 1 C39.80478964 2.93605002 38.06890183 3.10005147 34.4375 2.375 C32.1223614 1.98285455 32.1223614 1.98285455 30 2 C27.85745428 3.76666979 27.85745428 3.76666979 27 6 C27 4.68 27 3.36 27 2 C26.25314941 2.01047363 25.50629883 2.02094727 24.73681641 2.03173828 C21.36624492 2.0732077 17.995727 2.09929729 14.625 2.125 C13.449375 2.14175781 12.27375 2.15851563 11.0625 2.17578125 C9.38027344 2.18544922 9.38027344 2.18544922 7.6640625 2.1953125 C6.62717285 2.20578613 5.5902832 2.21625977 4.52197266 2.22705078 C2 2 2 2 0 0 Z " fill="#B9945C" transform="translate(142,86)"/>
<path d="M0 0 C0.33 0.66 0.66 1.32 1 2 C2.65769409 1.98428955 2.65769409 1.98428955 4.34887695 1.96826172 C8.44698856 1.93207593 12.54508603 1.90910471 16.64331055 1.89013672 C18.41742324 1.88007589 20.19151935 1.86642578 21.96557617 1.84912109 C24.51485284 1.82487622 27.06391037 1.81351782 29.61328125 1.8046875 C30.80405022 1.78920364 30.80405022 1.78920364 32.01887512 1.77340698 C35.88223043 1.7726189 37.70839446 1.80559631 41 4 C27.33333333 4 13.66666667 4 0 4 C0 2.68 0 1.36 0 0 Z " fill="#3A1740" transform="translate(102,180)"/>
<path d="M0 0 C9.57 0.33 19.14 0.66 29 1 C29 1.33 29 1.66 29 2 C25.89610484 2.33589425 22.79184301 2.66827237 19.6875 3 C18.80642578 3.09539062 17.92535156 3.19078125 17.01757812 3.2890625 C16.17001953 3.37929687 15.32246094 3.46953125 14.44921875 3.5625 C13.27879028 3.68818359 13.27879028 3.68818359 12.0847168 3.81640625 C10 4 10 4 7 4 C5.66018514 4.3062434 4.32488113 4.63451555 3 5 C3 4.34 3 3.68 3 3 C2.01 2.67 1.02 2.34 0 2 C0 1.34 0 0.68 0 0 Z " fill="#2B0939" transform="translate(101,244)"/>
<path d="M0 0 C12.87 0 25.74 0 39 0 C39 0.33 39 0.66 39 1 C38.17798096 1.01458252 37.35596191 1.02916504 36.5090332 1.04418945 C32.77638677 1.11876333 29.04462541 1.21539512 25.3125 1.3125 C24.01892578 1.33505859 22.72535156 1.35761719 21.39257812 1.38085938 C19.52182617 1.4340332 19.52182617 1.4340332 17.61328125 1.48828125 C16.46641846 1.51446533 15.31955566 1.54064941 14.13793945 1.56762695 C10.7198966 2.03859512 8.84318108 3.11281071 6 5 C5.34 5 4.68 5 4 5 C4 4.01 4 3.02 4 2 C2.68 2 1.36 2 0 2 C0 1.34 0 0.68 0 0 Z " fill="#937461" transform="translate(134,147)"/>
<path d="M0 0 C4.95 0 9.9 0 15 0 C15.33 0.99 15.66 1.98 16 3 C9.4 3 2.8 3 -4 3 C-2.68 2.67 -1.36 2.34 0 2 C0 1.34 0 0.68 0 0 Z " fill="#BDA34F" transform="translate(152,178)"/>
<path d="M0 0 C6.93 0 13.86 0 21 0 C20.01 1.485 20.01 1.485 19 3 C15.91796875 3.36328125 15.91796875 3.36328125 12.1875 3.3125 C10.96417969 3.30863281 9.74085937 3.30476563 8.48046875 3.30078125 C5.21138733 3.01826804 2.93790925 2.40460042 0 1 C0 0.67 0 0.34 0 0 Z " fill="#441056" transform="translate(103,121)"/>
<path d="M0 0 C11.88 0 23.76 0 36 0 C36 0.66 36 1.32 36 2 C32 2 28 2 24 2 C22.72511719 2.01160156 21.45023438 2.02320313 20.13671875 2.03515625 C18.65364674 2.04441718 17.17057378 2.05352721 15.6875 2.0625 C14.58631836 2.07506836 14.58631836 2.07506836 13.46289062 2.08789062 C8.86492021 2.10828978 4.53590262 1.76097706 0 1 C0 0.67 0 0.34 0 0 Z " fill="#381C20" transform="translate(140,182)"/>
<path d="M0 0 C0.99 0.33 1.98 0.66 3 1 C3.66 2.98 4.32 4.96 5 7 C-2.59 7 -10.18 7 -18 7 C-17.67 6.34 -17.34 5.68 -17 5 C-11.39 5 -5.78 5 0 5 C0 3.35 0 1.7 0 0 Z " fill="#D8D0C0" transform="translate(232,238)"/>
<path d="M0 0 C3.04172719 -0.0271045 6.08320997 -0.04688964 9.125 -0.0625 C9.9809375 -0.07087891 10.836875 -0.07925781 11.71875 -0.08789062 C16.26678411 -0.10538306 20.52383164 0.06807642 25 1 C24.67 1.66 24.34 2.32 24 3 C15.62239447 3.17740812 7.34919096 2.62340626 -1 2 C-0.67 1.34 -0.34 0.68 0 0 Z " fill="#441A38" transform="translate(127,121)"/>
<path d="M0 0 C1.32 0 2.64 0 4 0 C3.68950274 1.43793392 3.3765224 2.8753318 3.0625 4.3125 C2.88847656 5.11300781 2.71445313 5.91351563 2.53515625 6.73828125 C2 9 2 9 1 12 C-0.98 12 -2.96 12 -5 12 C-4.360625 11.319375 -3.72125 10.63875 -3.0625 9.9375 C-0.6741507 6.53591161 -0.32122847 4.09566299 0 0 Z " fill="#D9D0C6" transform="translate(220,108)"/>
<path d="M0 0 C3.58326501 -0.05814085 7.16640838 -0.09364357 10.75 -0.125 C11.76578125 -0.14175781 12.7815625 -0.15851563 13.828125 -0.17578125 C14.8078125 -0.18222656 15.7875 -0.18867188 16.796875 -0.1953125 C17.69760742 -0.20578613 18.59833984 -0.21625977 19.52636719 -0.22705078 C22.13926856 0.01278324 23.75664666 0.67687936 26 2 C19.69079646 3.14712792 14.06875978 2.8261276 7.75 2 C7.00492187 1.90460938 6.25984375 1.80921875 5.4921875 1.7109375 C3.66117061 1.47619175 1.83054513 1.23839658 0 1 C0 0.67 0 0.34 0 0 Z " fill="#8F28C0" transform="translate(104,210)"/>
<path d="M0 0 C0.66 0.33 1.32 0.66 2 1 C2 8.59 2 16.18 2 24 C0 22 0 22 -0.16015625 18.77734375 C-0.12792969 17.51019531 -0.09570312 16.24304688 -0.0625 14.9375 C-0.00851506 12.62553635 0.02046463 10.31250329 0 8 C-0.33 7.67 -0.66 7.34 -1 7 C-0.71269945 4.66055264 -0.38063221 2.3260857 0 0 Z " fill="#F3EEE7" transform="translate(213,150)"/>
<path d="M0 0 C8.58 0 17.16 0 26 0 C25.67 0.66 25.34 1.32 25 2 C22 2.6875 22 2.6875 19 3 C18.67 2.67 18.34 2.34 18 2 C16.65984779 1.84417697 15.31241097 1.74955858 13.96484375 1.68359375 C13.15595703 1.64169922 12.34707031 1.59980469 11.51367188 1.55664062 C10.66353516 1.51732422 9.81339844 1.47800781 8.9375 1.4375 C8.08349609 1.39431641 7.22949219 1.35113281 6.34960938 1.30664062 C4.23327963 1.20023298 2.11666187 1.09958269 0 1 C0 0.67 0 0.34 0 0 Z " fill="#D5C489" transform="translate(179,86)"/>
<path d="M0 0 C1.79244141 0.01740234 1.79244141 0.01740234 3.62109375 0.03515625 C5.41740234 0.04869141 5.41740234 0.04869141 7.25 0.0625 C8.17683594 0.07410156 9.10367188 0.08570313 10.05859375 0.09765625 C9.39859375 1.41765625 8.73859375 2.73765625 8.05859375 4.09765625 C7.06859375 3.43765625 6.07859375 2.77765625 5.05859375 2.09765625 C4.25421875 2.26265625 3.44984375 2.42765625 2.62109375 2.59765625 C-0.37641428 3.18253587 -1.4117194 2.69042205 -3.94140625 1.09765625 C-2.94140625 0.09765625 -2.94140625 0.09765625 0 0 Z " fill="#AF7F63" transform="translate(148.94140625,209.90234375)"/>
<path d="M0 0 C0.99 0 1.98 0 3 0 C3 0.66 3 1.32 3 2 C3.99 2 4.98 2 6 2 C6.33 1.34 6.66 0.68 7 0 C7 0.66 7 1.32 7 2 C8.98 2 10.96 2 13 2 C13 2.33 13 2.66 13 3 C6.4 3 -0.2 3 -7 3 C-7 2.67 -7 2.34 -7 2 C-4.69 2 -2.38 2 0 2 C0 1.34 0 0.68 0 0 Z " fill="#AC727A" transform="translate(135,178)"/>
<path d="M0 0 C6.27 0 12.54 0 19 0 C14.5 3.375 14.5 3.375 10 3 C10 2.34 10 1.68 10 1 C6.7 1 3.4 1 0 1 C0 0.67 0 0.34 0 0 Z " fill="#824A83" transform="translate(115,147)"/>
<path d="M0 0 C0.78246094 -0.02578125 1.56492188 -0.0515625 2.37109375 -0.078125 C5.04181509 0.32176911 5.88227439 1.19699122 7.5625 3.25 C5.79200311 3.30410687 4.02103151 3.34284119 2.25 3.375 C0.77080078 3.40980469 0.77080078 3.40980469 -0.73828125 3.4453125 C-3.4375 3.25 -3.4375 3.25 -6.4375 1.25 C-4.11063547 0.08656773 -2.59028587 0.05104012 0 0 Z " fill="#925F7E" transform="translate(137.4375,241.75)"/>
<path d="M0 0 C0.33 0.99 0.66 1.98 1 3 C0 4 0 4 -3.37890625 4.09765625 C-4.77347077 4.09098369 -6.16801743 4.07902532 -7.5625 4.0625 C-8.27341797 4.05798828 -8.98433594 4.05347656 -9.71679688 4.04882812 C-11.47790013 4.03700864 -13.23896036 4.01907263 -15 4 C-11.94242368 2.21292343 -9.8936518 1.81171094 -6.375 2 C-4.07776501 2.16713497 -4.07776501 2.16713497 -2 2 C-1.34 1.34 -0.68 0.68 0 0 Z " fill="#D5C394" transform="translate(201,116)"/>
<path d="M0 0 C-2 2 -2 2 -4.6015625 2.1953125 C-5.59929687 2.17210938 -6.59703125 2.14890625 -7.625 2.125 C-9.12933594 2.09792969 -9.12933594 2.09792969 -10.6640625 2.0703125 C-11.43492188 2.04710938 -12.20578125 2.02390625 -13 2 C-12.67 1.34 -12.34 0.68 -12 0 C-3.89667897 -1.46125461 -3.89667897 -1.46125461 0 0 Z " fill="#461A47" transform="translate(124,122)"/>
<path d="M0 0 C2.97 0 5.94 0 9 0 C6.14693203 2.32472205 3.45925163 3.7508258 0 5 C0 3.35 0 1.7 0 0 Z " fill="#8A22D9" transform="translate(105,149)"/>
<path d="M0 0 C2.27057377 -0.05398987 4.54151288 -0.09278742 6.8125 -0.125 C8.07707031 -0.14820312 9.34164062 -0.17140625 10.64453125 -0.1953125 C14 0 14 0 17 2 C13.52140783 2.86964804 11.41372156 2.97534902 8 2 C5.33813335 1.61533719 2.67181089 1.31171127 0 1 C0 0.67 0 0.34 0 0 Z " fill="#8735C1" transform="translate(104,86)"/>
<path d="M0 0 C3 2 3 2 3.6875 5.125 C3.8421875 6.548125 3.8421875 6.548125 4 8 C3.01 8 2.02 8 1 8 C0 2.25 0 2.25 0 0 Z " fill="#E5DCC7" transform="translate(224,220)"/>
<path d="M0 0 C0.33 0 0.66 0 1 0 C1 1.98 1 3.96 1 6 C-0.98 6 -2.96 6 -5 6 C-3.35830472 3.97945196 -1.69088222 1.97956942 0 0 Z " fill="#E9DCD0" transform="translate(220,114)"/>
<path d="M0 0 C1.98 0 3.96 0 6 0 C4.1875 2 4.1875 2 2 4 C1.01 4 0.02 4 -1 4 C-0.67 2.68 -0.34 1.36 0 0 Z " fill="#AA7471" transform="translate(139,148)"/>
<path d="M0 0 C0.66 0.33 1.32 0.66 2 1 C2 3.31 2 5.62 2 8 C1.01 7.67 0.02 7.34 -1 7 C-0.67 4.69 -0.34 2.38 0 0 Z " fill="#FCF8F1" transform="translate(213,150)"/>
<path d="M0 0 C0.99 0.33 1.98 0.66 3 1 C3.33 2.65 3.66 4.3 4 6 C2.68 5.67 1.36 5.34 0 5 C0 3.35 0 1.7 0 0 Z " fill="#F4F0E6" transform="translate(232,238)"/>
<path d="M0 0 C1.58294782 -0.05437607 3.16644256 -0.09296271 4.75 -0.125 C5.63171875 -0.14820313 6.5134375 -0.17140625 7.421875 -0.1953125 C10.1135858 0.00860498 11.69904974 0.63448279 14 2 C12.0085944 2.38133299 10.00720923 2.71325582 8 3 C7.67 2.67 7.34 2.34 7 2 C4.67182036 1.63239269 2.3381615 1.29758419 0 1 C0 0.67 0 0.34 0 0 Z " fill="#9741A8" transform="translate(116,210)"/>
<path d="M0 0 C1.32 0.33 2.64 0.66 4 1 C2.515 4.96 2.515 4.96 1 9 C0.67 9 0.34 9 0 9 C0 6.03 0 3.06 0 0 Z " fill="#7A22D5" transform="translate(104,87)"/>
<path d="M0 0 C3.3 0 6.6 0 10 0 C9.67 0.66 9.34 1.32 9 2 C6.125 2.8125 6.125 2.8125 3 3 C2.01 2.01 1.02 1.02 0 0 Z " fill="#E0D2A7" transform="translate(195,86)"/>
</svg>
