<svg width="14" height="14" viewBox="0 0 14 14" fill="none" xmlns="http://www.w3.org/2000/svg">
<path fill-rule="evenodd" clip-rule="evenodd" d="M7 2.5C4.49781 2.5 2.5 4.49781 2.5 7C2.5 9.50219 4.49781 11.5 7 11.5C9.50219 11.5 11.5 9.50219 11.5 7C11.5 4.49781 9.50219 2.5 7 2.5ZM1 7C1 3.68629 3.68629 1 7 1C10.3137 1 13 3.68629 13 7C13 10.3137 10.3137 13 7 13C3.68629 13 1 10.3137 1 7Z" fill="#CDC2B1" stroke="#CDC2B1" stroke-width="0.5"/>
<path fill-rule="evenodd" clip-rule="evenodd" d="M11.5 7C11.5 4.51472 9.48528 2.5 7 2.5V1C10.3137 1 13 3.68629 13 7H11.5Z" fill="#FF7A45" stroke="#FF743D" stroke-width="0.5"/>
</svg>
