<?xml version="1.0" standalone="no"?>
<!DOCTYPE svg PUBLIC "-//W3C//DTD SVG 1.0//EN" "http://www.w3.org/TR/2001/REC-SVG-20010904/DTD/svg10.dtd">
<svg xmlns="http://www.w3.org/2000/svg" xmlns:xlink="http://www.w3.org/1999/xlink" id="body_1" width="1200" height="900">

<g transform="matrix(2 0 0 2 0 0)">
    <path d="M274.6 201.4C 274.6 209.9 269.3 214.8 260 214.8L260 214.8L252.7 214.8L252.7 225.2L244.5 225.2L244.5 188.7L260 188.7C 269.2 188.7 274.6 193.3 274.6 201.4zM266.7 201.7C 266.7 197.7 264.1 195.6 259.5 195.6L259.5 195.6L252.7 195.6L252.7 208L259.5 208C 264.1 207.9 266.7 205.8 266.7 201.7z" stroke="none" fill="#111110" fill-rule="nonzero" />
    <path d="M287.5 188.7L287.5 206.9L304 206.9L304 188.7L312.2 188.7L312.2 225.2L304 225.2L304 214.2L287.5 214.2L287.5 225.2L279.3 225.2L279.3 188.7L287.5 188.7z" stroke="none" fill="#111110" fill-rule="nonzero" />
    <path d="M344 217.9L327.3 217.9L324.4 225.2L315.9 225.2L331.8 188.7L340.3 188.7L355.9 225.2L347 225.2L344 217.9zM341.1 210.6L335.7 197.3L330.3 210.6L341.1 210.6z" stroke="none" fill="#111110" fill-rule="nonzero" />
    <path d="M413.6 217.9L396.9 217.9L393.9 225.2L385.4 225.2L401.3 188.7L409.8 188.7L425.4 225.2L416.6 225.2L413.6 217.9zM410.7 210.6L405.3 197.3L399.9 210.6L410.7 210.6z" stroke="none" fill="#111110" fill-rule="nonzero" />
    <path d="M367.9 188.7L367.9 218L383.5 218L383.5 225.2L359.6 225.2L359.6 188.7L367.9 188.7z" stroke="none" fill="#111110" fill-rule="nonzero" />
    <path d="M252 249.6L269.7 273.1L269.7 249.6L277.5 249.6L277.5 286.1L270 286.1L252.3 262.7L252.3 286.1L244.5 286.1L244.5 249.6L252 249.6z" stroke="none" fill="#111110" fill-rule="nonzero" />
    <path d="M310.6 249.6L310.6 256.4L291 256.4L291 264.3L308.6 264.3L308.6 271.1L291 271.1L291 279.2L311.1 279.2L311.1 286L282.8 286L282.8 249.5L310.6 249.5L310.6 249.6z" stroke="none" fill="#111110" fill-rule="nonzero" />
    <path d="M344.4 249.6L344.4 256.6L333.3 256.6L333.3 286.1L325 286.1L325 256.6L313.9 256.6L313.9 249.6L344.4 249.6z" stroke="none" fill="#111110" fill-rule="nonzero" />
    <path d="M355.6 249.6L363.3 277.1L370.9 249.6L379 249.6L386.7 277.1L394.3 249.6L402.7 249.6L390.6 286.1L382.1 286.1L374.8 260.1L367.3 286.1L358.8 286.1L346.8 249.6L355.6 249.6z" stroke="none" fill="#111110" fill-rule="nonzero" />
    <path d="M442.3 267.8C 442.3 278.3 433.9 286.3 422.8 286.3C 411.7 286.3 403.3 278.3 403.3 267.8C 403.3 257.3 411.7 249.4 422.8 249.4C 433.9 249.4 442.3 257.3 442.3 267.8zM411.8 267.8C 411.8 270.8 412.9 273.7 415 275.8C 417.1 277.9 420 279.1 422.9 279.2C 425.1 279.2 427.3 278.6 429.2 277.4C 431.1 276.2 432.5 274.4 433.4 272.4C 434.3 270.3 434.5 268.1 434.1 265.9C 433.7 263.7 432.6 261.7 431 260.1C 429.4 258.5 427.4 257.4 425.2 257C 423 256.5 420.7 256.8 418.7 257.6C 416.6 258.4 414.9 259.9 413.6 261.7C 412.5 263.4 411.8 265.5 411.8 267.8z" stroke="none" fill="#111110" fill-rule="nonzero" />
    <path d="M467.8 286.1L462 275.7L453.6 275.7L453.6 286.1L445.4 286.1L445.4 249.6L461.3 249.6C 470.8 249.6 476.3 254.2 476.3 262.3C 476.3 267.9 473.9 272 469.5 274.1L469.5 274.1L477.3 286.1L467.8 286.1zM453.6 268.7L461.2 268.7C 465.7 268.7 468.3 266.6 468.3 262.4C 468.3 258.2 465.7 256.3 461.2 256.3L461.2 256.3L453.6 256.3L453.6 268.7z" stroke="none" fill="#111110" fill-rule="nonzero" />
    <path d="M504.1 286.1L493.6 271.2L488.3 277L488.3 286L480.1 286L480.1 249.5L488.3 249.5L488.3 266.1L503.5 249.5L513 249.5L499.3 264.7L513.9 285.9L504.1 285.9L504.1 286.1z" stroke="none" fill="#111110" fill-rule="nonzero" />
    <path d="M183.6 225.3L110.6 225.3L110.6 249.6L183.6 249.6L183.6 225.3z" stroke="none" fill="#FFFFFF" fill-rule="nonzero" />
    <path d="M207.9 188.8L183.6 188.8L183.6 225.3L207.9 225.3L207.9 188.8z" stroke="none" fill="#111110" fill-rule="nonzero" />
    <path d="M110.6 249.7L86.2 249.7L86.2 255.8L86.2 261.9L86.2 286.2L110.5 286.2L110.5 261.9L110.5 249.7L110.6 249.7z" stroke="none" fill="#111110" fill-rule="nonzero" />
    <path d="M183.6 164.5L110.6 164.5L107.1 164.5L86.2 164.5L86.2 213.2L86.2 221L86.2 225.4L110.5 225.4L110.5 221L110.5 213.2L110.5 188.9L183.5 188.9L183.5 164.5L183.6 164.5z" stroke="none" fill="#111110" fill-rule="nonzero" />
    <path d="M183.6 225.3L110.6 225.3L110.6 249.6L183.6 249.6L183.6 225.3z" stroke="none" fill="#111110" fill-rule="nonzero" />
</g>
</svg>