<svg width="13" height="14" viewBox="0 0 13 14" fill="none" xmlns="http://www.w3.org/2000/svg">
<path d="M6.5 0.5C5.21442 0.5 3.95772 0.881218 2.8888 1.59545C1.81988 2.30968 0.986755 3.32484 0.494786 4.51256C0.00281637 5.70028 -0.125905 7.00721 0.124899 8.26809C0.375702 9.52896 0.994767 10.6872 1.90381 11.5962C2.81285 12.5052 3.97104 13.1243 5.23191 13.3751C6.49279 13.6259 7.79972 13.4972 8.98744 13.0052C10.1752 12.5132 11.1903 11.6801 11.9046 10.6112C12.6188 9.54229 13 8.28558 13 7C13 5.27609 12.3152 3.62279 11.0962 2.40381C9.87721 1.18482 8.22391 0.5 6.5 0.5ZM9.60227 8.885L8.385 10.1023L6.5 8.21727L4.615 10.1023L3.39773 8.885L5.28273 7L3.39773 5.115L4.615 3.89773L6.5 5.78273L8.385 3.89773L9.60227 5.115L7.71727 7L9.60227 8.885Z" fill="#EF4444"/>
</svg>
