<svg width="15" height="14" viewBox="0 0 15 14" fill="none" xmlns="http://www.w3.org/2000/svg">
<path fill-rule="evenodd" clip-rule="evenodd" d="M7.49995 13.8002C11.2555 13.8002 14.3 10.7557 14.3 7.0002C14.3 3.24466 11.2555 0.200195 7.49995 0.200195C3.74442 0.200195 0.699951 3.24466 0.699951 7.0002C0.699951 10.7557 3.74442 13.8002 7.49995 13.8002ZM10.651 5.90124C10.9829 5.56929 10.9829 5.0311 10.651 4.69916C10.319 4.36721 9.78086 4.36721 9.44891 4.69916L6.64995 7.49811L5.55099 6.39916C5.21905 6.06721 4.68086 6.06721 4.34891 6.39916C4.01697 6.7311 4.01697 7.26929 4.34891 7.60124L6.04891 9.30124C6.38086 9.63318 6.91905 9.63318 7.25099 9.30124L10.651 5.90124Z" fill="#22C55E"/>
</svg>
