<svg width="128" height="128" viewBox="0 0 128 128" fill="none" xmlns="http://www.w3.org/2000/svg">
<g clip-path="url(#clip0_750_76)">
<path d="M75.9571 10.24C65.5534 10.2441 55.5772 14.3804 48.2229 21.7392C40.8686 29.0979 36.7383 39.0765 36.7405 49.4803C36.7405 49.5078 36.7405 49.5341 36.7405 49.5622V49.6262C36.7685 50.1191 36.9842 50.5825 37.3433 50.9211C37.7025 51.2598 38.1777 51.448 38.6714 51.447H113.242C113.736 51.448 114.211 51.2597 114.57 50.9211C114.929 50.5824 115.145 50.119 115.172 49.6262L115.176 49.5622C115.176 49.5341 115.176 49.5078 115.176 49.4803C115.178 39.0762 111.047 29.0973 103.693 21.7385C96.3378 14.3796 86.3612 10.2436 75.9571 10.24Z" fill="#53CBC8"/>
<path d="M10.7756 93.2928C10.7752 93.7647 10.6349 94.2259 10.3724 94.6181C10.11 95.0103 9.7372 95.3159 9.30112 95.4962C8.86504 95.6766 8.38529 95.7236 7.92249 95.6314C7.45968 95.5391 7.0346 95.3117 6.701 94.9779C6.3674 94.6442 6.14023 94.219 6.04823 93.7561C5.95623 93.2933 6.00354 92.8135 6.18413 92.3775C6.36472 91.9416 6.6705 91.5689 7.06284 91.3067C7.45518 91.0444 7.91644 90.9044 8.38835 90.9043C8.70195 90.9043 9.0125 90.9661 9.30221 91.0861C9.59193 91.2062 9.85514 91.3821 10.0768 91.6039C10.2985 91.8258 10.4743 92.0891 10.5942 92.3788C10.7141 92.6686 10.7757 92.9792 10.7756 93.2928Z" fill="#E1147B"/>
<path d="M110.648 80.0806H30.6335C30.2265 80.0811 29.8265 80.1873 29.4727 80.3886C29.1189 80.59 28.8234 80.8797 28.6151 81.2294C28.4067 81.5791 28.2926 81.9768 28.284 82.3838C28.2753 82.7908 28.3724 83.1931 28.5657 83.5513C28.5785 83.5763 28.5919 83.6012 28.6054 83.6255C28.8069 83.9984 29.1056 84.3097 29.4698 84.5265C29.8339 84.7433 30.25 84.8575 30.6739 84.8569H110.61C111.034 84.8574 111.45 84.7432 111.814 84.5264C112.178 84.3096 112.477 83.9983 112.678 83.6255L112.718 83.5513C112.911 83.1929 113.008 82.7905 112.999 82.3834C112.99 81.9764 112.876 81.5785 112.668 81.2288C112.459 80.8791 112.163 80.5895 111.809 80.3883C111.456 80.187 111.055 80.081 110.648 80.0806Z" fill="#E1147B"/>
<path d="M121.28 58.4319H30.6317C30.3117 58.4327 29.9952 58.4987 29.7016 58.6258C29.408 58.7529 29.1433 58.9385 28.9238 59.1713C28.7042 59.4041 28.5344 59.6792 28.4246 59.9797C28.3149 60.2803 28.2675 60.6001 28.2854 60.9195C28.2854 60.9445 28.2854 60.9695 28.2893 60.9944C28.323 61.5936 28.5851 62.1571 29.0217 62.5689C29.4582 62.9807 30.036 63.2095 30.6361 63.2082H121.28C121.88 63.2093 122.458 62.9805 122.894 62.5687C123.331 62.157 123.593 61.5936 123.627 60.9944C123.627 60.9695 123.627 60.9445 123.631 60.9195C123.649 60.5997 123.601 60.2796 123.491 59.9787C123.381 59.6778 123.211 59.4025 122.991 59.1697C122.771 58.9369 122.506 58.7513 122.211 58.6245C121.917 58.4976 121.6 58.4321 121.28 58.4319Z" fill="#E1147B"/>
<path d="M87.1494 112.553H46.2963C45.7664 112.553 45.252 112.732 44.8366 113.062C44.4212 113.391 44.1291 113.851 44.0078 114.366C43.8864 114.882 43.9429 115.424 44.168 115.904C44.3931 116.384 44.7737 116.773 45.248 117.01L45.3978 117.085C45.7233 117.247 46.082 117.33 46.4454 117.329H86.9984C87.3621 117.33 87.721 117.247 88.0467 117.085L88.1958 117.01C88.67 116.774 89.0505 116.384 89.2756 115.904C89.5008 115.425 89.5574 114.883 89.4363 114.367C89.3152 113.852 89.0235 113.392 88.6084 113.062C88.1934 112.733 87.6793 112.554 87.1494 112.553Z" fill="#E1147B"/>
<path d="M112.108 101.729H71.2563C70.7267 101.729 70.2129 101.909 69.798 102.238C69.3832 102.568 69.0916 103.027 68.9704 103.543C68.8492 104.058 68.9055 104.6 69.1302 105.079C69.3549 105.559 69.7349 105.949 70.2086 106.185L70.3577 106.26C70.6836 106.422 71.0424 106.505 71.406 106.504H111.956C112.32 106.505 112.679 106.422 113.005 106.26L113.154 106.185C113.627 105.949 114.007 105.559 114.232 105.08C114.457 104.6 114.513 104.059 114.392 103.544C114.271 103.028 113.98 102.569 113.566 102.239C113.151 101.91 112.638 101.73 112.108 101.729Z" fill="#E1147B"/>
<path d="M56.4039 94.9285L56.3347 94.8543C56.0235 94.5189 55.8169 94.0999 55.7402 93.6487C55.6636 93.1976 55.7203 92.7338 55.9033 92.3144C56.0864 91.895 56.3878 91.5381 56.7707 91.2875C57.1536 91.0369 57.6013 90.9035 58.0589 90.9036H124.363C124.821 90.9035 125.268 91.0369 125.651 91.2875C126.034 91.5381 126.335 91.895 126.518 92.3144C126.702 92.7338 126.758 93.1976 126.682 93.6487C126.605 94.0999 126.398 94.5189 126.087 94.8543L126.018 94.9285C125.797 95.1648 125.53 95.3534 125.234 95.4826C124.938 95.6118 124.618 95.679 124.294 95.6799H58.1274C57.804 95.679 57.4843 95.6118 57.1879 95.4826C56.8914 95.3534 56.6246 95.1648 56.4039 94.9285Z" fill="#E1147B"/>
<path d="M16.9133 90.9043H48.5753C49.1049 90.9053 49.6187 91.0849 50.0336 91.4142C50.4484 91.7434 50.74 92.203 50.8612 92.7186C50.9824 93.2341 50.9261 93.7755 50.7014 94.2551C50.4767 94.7347 50.0967 95.1244 49.623 95.3612L49.4739 95.4361C49.1484 95.5979 48.7897 95.6816 48.4262 95.6806H17.0662C16.7025 95.6817 16.3436 95.5979 16.0179 95.4361L15.8688 95.3612C15.3953 95.1245 15.0155 94.7351 14.7907 94.2558C14.566 93.7766 14.5094 93.2355 14.6302 92.7201C14.751 92.2047 15.042 91.7451 15.4563 91.4156C15.8706 91.0861 16.3839 90.906 16.9133 90.9043Z" fill="#E1147B"/>
<path d="M24.4941 60.8197C24.4938 61.2917 24.3537 61.7529 24.0913 62.1452C23.8289 62.5375 23.4561 62.8432 23.02 63.0236C22.584 63.2041 22.1042 63.2512 21.6414 63.159C21.1785 63.0669 20.7534 62.8395 20.4197 62.5058C20.0861 62.172 19.8588 61.7468 19.7668 61.284C19.6747 60.8211 19.722 60.3413 19.9025 59.9053C20.0831 59.4693 20.3889 59.0966 20.7812 58.8343C21.1736 58.572 21.6349 58.432 22.1069 58.4319C22.4204 58.4319 22.7309 58.4936 23.0205 58.6136C23.3102 58.7337 23.5734 58.9096 23.7951 59.1313C24.0168 59.353 24.1926 59.6163 24.3125 59.906C24.4325 60.1957 24.4941 60.5062 24.4941 60.8197Z" fill="#E1147B"/>
<path d="M80.7572 72.2891C80.7636 72.2648 80.77 72.2392 80.777 72.2149C80.8703 71.8666 80.8822 71.5015 80.8118 71.1479C80.7413 70.7943 80.5905 70.4616 80.3709 70.1757C80.1513 69.8897 79.8689 69.6581 79.5454 69.4988C79.222 69.3394 78.8662 69.2566 78.5056 69.2568H12.1914C11.8308 69.2565 11.475 69.3392 11.1515 69.4985C10.8279 69.6578 10.5454 69.8894 10.3258 70.1754C10.1062 70.4614 9.95537 70.7941 9.88501 71.1478C9.81464 71.5015 9.82663 71.8666 9.92005 72.2149C9.92645 72.2392 9.93348 72.2648 9.94052 72.2891C10.075 72.7887 10.3702 73.23 10.7804 73.5451C11.1907 73.8602 11.6933 74.0315 12.2106 74.0325H78.4865C79.0038 74.0314 79.5064 73.8601 79.9168 73.545C80.3271 73.23 80.6224 72.7887 80.7572 72.2891Z" fill="#E1147B"/>
<path d="M6.05241 71.6442C6.05215 72.1161 5.91199 72.5774 5.6496 72.9697C5.3872 73.362 5.01438 73.6677 4.57827 73.8481C4.14216 74.0286 3.66234 74.0757 3.19948 73.9835C2.73662 73.8912 2.31148 73.6638 1.97784 73.33C1.6442 72.9962 1.41705 72.5709 1.32506 72.108C1.23308 71.6451 1.28041 71.1653 1.46108 70.7293C1.64175 70.2933 1.94762 69.9206 2.34006 69.6585C2.7325 69.3963 3.19388 69.2563 3.66585 69.2563C4.29892 69.2567 4.90593 69.5084 5.35346 69.9562C5.80099 70.4039 6.05241 71.0111 6.05241 71.6442Z" fill="#E1147B"/>
<path d="M24.4941 82.4684C24.4938 82.9404 24.3537 83.4016 24.0913 83.7939C23.8289 84.1862 23.4561 84.4919 23.02 84.6723C22.584 84.8528 22.1042 84.8999 21.6414 84.8077C21.1785 84.7155 20.7534 84.4882 20.4197 84.1545C20.0861 83.8207 19.8588 83.3955 19.7668 82.9326C19.6747 82.4698 19.722 81.99 19.9025 81.554C20.0831 81.118 20.3889 80.7452 20.7812 80.483C21.1736 80.2207 21.6349 80.0807 22.1069 80.0806C22.7401 80.0807 23.3473 80.3324 23.7949 80.7802C24.2426 81.228 24.4941 81.8352 24.4941 82.4684Z" fill="#E1147B"/>
<path d="M65.1186 104.117C65.1183 104.589 64.9782 105.05 64.7158 105.443C64.4534 105.835 64.0807 106.141 63.6446 106.321C63.2085 106.501 62.7287 106.549 62.2659 106.456C61.803 106.364 61.3779 106.137 61.0442 105.803C60.7106 105.469 60.4834 105.044 60.3913 104.581C60.2993 104.118 60.3465 103.639 60.527 103.203C60.7076 102.767 61.0134 102.394 61.4058 102.132C61.7982 101.869 62.2594 101.729 62.7314 101.729C63.0449 101.729 63.3554 101.791 63.6451 101.911C63.9347 102.031 64.1979 102.207 64.4196 102.429C64.6413 102.65 64.8171 102.914 64.937 103.203C65.057 103.493 65.1187 103.804 65.1186 104.117Z" fill="#E1147B"/>
<path d="M40.1574 114.941C40.1571 115.413 40.017 115.875 39.7546 116.267C39.4922 116.659 39.1194 116.965 38.6832 117.145C38.2471 117.326 37.7673 117.373 37.3045 117.281C36.8416 117.188 36.4165 116.961 36.0828 116.627C35.7492 116.293 35.522 115.868 35.43 115.405C35.3381 114.942 35.3854 114.462 35.5661 114.026C35.7467 113.59 36.0526 113.218 36.4451 112.956C36.8375 112.693 37.2989 112.553 37.7708 112.553C38.0843 112.554 38.3947 112.615 38.6843 112.735C38.9739 112.856 39.2371 113.031 39.4587 113.253C39.6803 113.475 39.8561 113.738 39.9759 114.028C40.0958 114.317 40.1575 114.628 40.1574 114.941Z" fill="#E1147B"/>
</g>
<defs>
<clipPath id="clip0_750_76">
<rect width="128" height="128" fill="white"/>
</clipPath>
</defs>
</svg>
